<svg width="16" height="16" viewBox="0 0 16 16" fill="none" xmlns="http://www.w3.org/2000/svg">
<mask id="mask0_1525_3667" style="mask-type:alpha" maskUnits="userSpaceOnUse" x="0" y="0" width="16" height="16">
<rect width="16" height="16" transform="matrix(-1 0 0 1 16 0)" fill="#C4C4C4"/>
</mask>
<g mask="url(#mask0_1525_3667)">
<path d="M5.40252 7.41252L9.56992 3.24512C9.64763 3.16741 9.73989 3.10576 9.84142 3.0637C9.94296 3.02165 10.0518 3 10.1617 3C10.3836 3 10.5965 3.08817 10.7535 3.24512C10.8312 3.32283 10.8928 3.41509 10.9349 3.51663C10.9769 3.61816 10.9986 3.72699 10.9986 3.83689C10.9986 4.05885 10.9104 4.27171 10.7535 4.42866L7.1695 8.00429L10.7535 11.5799C10.8316 11.6574 10.8936 11.7496 10.9359 11.8512C10.9782 11.9527 11 12.0617 11 12.1717C11 12.2817 10.9782 12.3907 10.9359 12.4922C10.8936 12.5938 10.8316 12.686 10.7535 12.7635C10.676 12.8416 10.5838 12.9036 10.4822 12.9459C10.3807 12.9882 10.2717 13.01 10.1617 13.01C10.0517 13.01 9.94272 12.9882 9.84115 12.9459C9.73958 12.9036 9.6474 12.8416 9.56992 12.7635L5.40252 8.59606C5.3244 8.51858 5.26239 8.42639 5.22008 8.32483C5.17776 8.22326 5.15598 8.11432 5.15598 8.00429C5.15598 7.89426 5.17776 7.78532 5.22008 7.68375C5.26239 7.58218 5.3244 7.49 5.40252 7.41252Z" fill="white"/>
</g>
</svg>
