<svg width="16" height="16" viewBox="0 0 16 16" fill="none" xmlns="http://www.w3.org/2000/svg">
<mask id="mask0_1525_2810" style="mask-type:alpha" maskUnits="userSpaceOnUse" x="0" y="0" width="16" height="16">
<rect width="16" height="16" fill="#C4C4C4"/>
</mask>
<g mask="url(#mask0_1525_2810)">
<path d="M10.5975 7.41252L6.43008 3.24512C6.35237 3.16741 6.26011 3.10576 6.15858 3.0637C6.05704 3.02165 5.94821 3 5.83831 3C5.61636 3 5.40349 3.08817 5.24654 3.24512C5.16883 3.32283 5.10718 3.41509 5.06513 3.51663C5.02307 3.61816 5.00142 3.72699 5.00142 3.83689C5.00142 4.05885 5.08959 4.27171 5.24654 4.42866L8.8305 8.00429L5.24654 11.5799C5.16842 11.6574 5.10642 11.7496 5.0641 11.8512C5.02179 11.9527 5 12.0617 5 12.1717C5 12.2817 5.02179 12.3907 5.0641 12.4922C5.10642 12.5938 5.16842 12.686 5.24654 12.7635C5.32402 12.8416 5.41621 12.9036 5.51778 12.9459C5.61934 12.9882 5.72828 13.01 5.83831 13.01C5.94834 13.01 6.05728 12.9882 6.15885 12.9459C6.26042 12.9036 6.3526 12.8416 6.43008 12.7635L10.5975 8.59606C10.6756 8.51858 10.7376 8.42639 10.7799 8.32483C10.8222 8.22326 10.844 8.11432 10.844 8.00429C10.844 7.89426 10.8222 7.78532 10.7799 7.68375C10.7376 7.58218 10.6756 7.49 10.5975 7.41252Z" fill="#2C2E46"/>
</g>
</svg>
