<svg width="344" height="16" viewBox="0 0 344 16" fill="none" xmlns="http://www.w3.org/2000/svg">
<path fill-rule="evenodd" clip-rule="evenodd" d="M344 13.7072C342.803 13.9028 341.608 14 340.417 14C334.722 14 328.96 11.7788 323.116 7.21203C317.016 2.4455 310.833 0 304.583 0C298.334 0 292.151 2.4455 286.051 7.21203C280.207 11.7788 274.445 14 268.75 14C263.055 14 257.293 11.7788 251.449 7.21203C245.349 2.4455 239.166 0 232.917 0C226.667 0 220.484 2.4455 214.384 7.21203C208.54 11.7788 202.778 14 197.083 14C191.388 14 185.627 11.7788 179.782 7.21203C173.682 2.4455 167.499 0 161.25 0C155 0 148.818 2.4455 142.718 7.21203C136.873 11.7788 131.112 14 125.417 14C119.722 14 113.96 11.7788 108.116 7.21203C102.016 2.4455 95.8328 0 89.5833 0C83.3338 0 77.151 2.4455 71.0509 7.21203C65.2065 11.7788 59.4449 14 53.75 14C48.055 14 42.2935 11.7788 36.449 7.21203C30.349 2.4455 24.1662 0 17.9167 0C11.6672 0 5.4843 2.4455 -0.615723 7.21203L0.615708 8.78797C6.46012 4.22117 12.2217 2 17.9167 2C23.6116 2 29.3732 4.22117 35.2176 8.78797C41.3176 13.5545 47.5005 16 53.75 16C59.9995 16 66.1823 13.5545 72.2824 8.78797C78.1268 4.22117 83.8884 2 89.5833 2C95.2783 2 101.04 4.22117 106.884 8.78797C112.984 13.5545 119.167 16 125.417 16C131.666 16 137.849 13.5545 143.949 8.78797C149.793 4.22117 155.555 2 161.25 2C166.945 2 172.707 4.22117 178.551 8.78797C184.651 13.5545 190.834 16 197.083 16C203.333 16 209.516 13.5545 215.616 8.78797C221.46 4.22117 227.222 2 232.917 2C238.612 2 244.373 4.22117 250.218 8.78797C256.318 13.5545 262.5 16 268.75 16C274.999 16 281.182 13.5545 287.282 8.78797C293.127 4.22117 298.888 2 304.583 2C310.278 2 316.04 4.22117 321.884 8.78797C327.984 13.5545 334.167 16 340.417 16C341.614 16 342.808 15.9103 344 15.7318V13.7072Z" fill="white"/>
</svg>
